<mxfile host="app.diagrams.net" modified="2021-03-08T06:17:32.866Z" agent="5.0 (Macintosh; Intel Mac OS X 10_15_6) AppleWebKit/537.36 (KHTML, like Gecko) Chrome/89.0.4389.72 Safari/537.36" etag="c7Q-iHoZn04bs9JVSizx" version="14.4.3" type="github">
  <diagram id="PZ04aSVTG57--us8ESF8" name="Page-1">
    <mxGraphModel dx="1099" dy="729" grid="1" gridSize="10" guides="1" tooltips="1" connect="1" arrows="1" fold="1" page="1" pageScale="1" pageWidth="3300" pageHeight="4681" math="0" shadow="0">
      <root>
        <mxCell id="0" />
        <mxCell id="1" parent="0" />
        <mxCell id="yjBsbkN-T13tBxAq5jsB-3" style="edgeStyle=orthogonalEdgeStyle;rounded=0;orthogonalLoop=1;jettySize=auto;html=1;exitX=0.5;exitY=0.5;exitDx=0;exitDy=0;exitPerimeter=0;entryX=0;entryY=0.25;entryDx=0;entryDy=0;" edge="1" parent="1" source="yjBsbkN-T13tBxAq5jsB-1" target="yjBsbkN-T13tBxAq5jsB-2">
          <mxGeometry relative="1" as="geometry" />
        </mxCell>
        <mxCell id="yjBsbkN-T13tBxAq5jsB-1" value="Actor" style="shape=umlActor;verticalLabelPosition=bottom;verticalAlign=top;html=1;outlineConnect=0;" vertex="1" parent="1">
          <mxGeometry x="160" y="240" width="30" height="60" as="geometry" />
        </mxCell>
        <mxCell id="yjBsbkN-T13tBxAq5jsB-5" style="edgeStyle=orthogonalEdgeStyle;rounded=0;orthogonalLoop=1;jettySize=auto;html=1;exitX=1;exitY=0.5;exitDx=0;exitDy=0;entryX=0;entryY=0.5;entryDx=0;entryDy=0;" edge="1" parent="1" source="yjBsbkN-T13tBxAq5jsB-2" target="yjBsbkN-T13tBxAq5jsB-4">
          <mxGeometry relative="1" as="geometry" />
        </mxCell>
        <mxCell id="yjBsbkN-T13tBxAq5jsB-2" value="consume queue" style="rounded=0;whiteSpace=wrap;html=1;" vertex="1" parent="1">
          <mxGeometry x="290" y="260" width="110" height="40" as="geometry" />
        </mxCell>
        <mxCell id="yjBsbkN-T13tBxAq5jsB-4" value="commit log" style="rounded=0;whiteSpace=wrap;html=1;" vertex="1" parent="1">
          <mxGeometry x="470" y="260" width="110" height="40" as="geometry" />
        </mxCell>
        <mxCell id="yjBsbkN-T13tBxAq5jsB-6" value="（queueid,index)" style="text;html=1;strokeColor=none;fillColor=none;align=center;verticalAlign=middle;whiteSpace=wrap;rounded=0;" vertex="1" parent="1">
          <mxGeometry x="210" y="230" width="40" height="20" as="geometry" />
        </mxCell>
        <mxCell id="yjBsbkN-T13tBxAq5jsB-7" value="commitlog offset" style="text;html=1;strokeColor=none;fillColor=none;align=center;verticalAlign=middle;whiteSpace=wrap;rounded=0;" vertex="1" parent="1">
          <mxGeometry x="420" y="230" width="40" height="20" as="geometry" />
        </mxCell>
        <mxCell id="yjBsbkN-T13tBxAq5jsB-10" style="edgeStyle=orthogonalEdgeStyle;rounded=0;orthogonalLoop=1;jettySize=auto;html=1;exitX=0.5;exitY=0.5;exitDx=0;exitDy=0;exitPerimeter=0;entryX=0;entryY=0.25;entryDx=0;entryDy=0;" edge="1" parent="1" source="yjBsbkN-T13tBxAq5jsB-11" target="yjBsbkN-T13tBxAq5jsB-13">
          <mxGeometry relative="1" as="geometry" />
        </mxCell>
        <mxCell id="yjBsbkN-T13tBxAq5jsB-11" value="Actor" style="shape=umlActor;verticalLabelPosition=bottom;verticalAlign=top;html=1;outlineConnect=0;" vertex="1" parent="1">
          <mxGeometry x="160" y="490" width="30" height="60" as="geometry" />
        </mxCell>
        <mxCell id="yjBsbkN-T13tBxAq5jsB-12" style="edgeStyle=orthogonalEdgeStyle;rounded=0;orthogonalLoop=1;jettySize=auto;html=1;exitX=1;exitY=0.5;exitDx=0;exitDy=0;entryX=0;entryY=0.5;entryDx=0;entryDy=0;" edge="1" parent="1" source="yjBsbkN-T13tBxAq5jsB-13" target="yjBsbkN-T13tBxAq5jsB-14">
          <mxGeometry relative="1" as="geometry" />
        </mxCell>
        <mxCell id="yjBsbkN-T13tBxAq5jsB-19" style="edgeStyle=orthogonalEdgeStyle;rounded=0;orthogonalLoop=1;jettySize=auto;html=1;exitX=0.25;exitY=1;exitDx=0;exitDy=0;entryX=0.25;entryY=0;entryDx=0;entryDy=0;" edge="1" parent="1" source="yjBsbkN-T13tBxAq5jsB-13" target="yjBsbkN-T13tBxAq5jsB-18">
          <mxGeometry relative="1" as="geometry" />
        </mxCell>
        <mxCell id="yjBsbkN-T13tBxAq5jsB-13" value="consume queue" style="rounded=0;whiteSpace=wrap;html=1;" vertex="1" parent="1">
          <mxGeometry x="290" y="510" width="110" height="40" as="geometry" />
        </mxCell>
        <mxCell id="yjBsbkN-T13tBxAq5jsB-14" value="commit log" style="rounded=0;whiteSpace=wrap;html=1;" vertex="1" parent="1">
          <mxGeometry x="470" y="510" width="110" height="40" as="geometry" />
        </mxCell>
        <mxCell id="yjBsbkN-T13tBxAq5jsB-15" value="（queueid,时间戳)" style="text;html=1;strokeColor=none;fillColor=none;align=center;verticalAlign=middle;whiteSpace=wrap;rounded=0;" vertex="1" parent="1">
          <mxGeometry x="210" y="480" width="40" height="20" as="geometry" />
        </mxCell>
        <mxCell id="yjBsbkN-T13tBxAq5jsB-16" value="commitlog offset" style="text;html=1;strokeColor=none;fillColor=none;align=center;verticalAlign=middle;whiteSpace=wrap;rounded=0;" vertex="1" parent="1">
          <mxGeometry x="420" y="480" width="40" height="20" as="geometry" />
        </mxCell>
        <mxCell id="yjBsbkN-T13tBxAq5jsB-17" value="二分查找" style="text;html=1;strokeColor=none;fillColor=none;align=center;verticalAlign=middle;whiteSpace=wrap;rounded=0;" vertex="1" parent="1">
          <mxGeometry x="320" y="470" width="50" height="20" as="geometry" />
        </mxCell>
        <mxCell id="yjBsbkN-T13tBxAq5jsB-20" style="edgeStyle=orthogonalEdgeStyle;rounded=0;orthogonalLoop=1;jettySize=auto;html=1;exitX=0.75;exitY=0;exitDx=0;exitDy=0;entryX=0.75;entryY=1;entryDx=0;entryDy=0;" edge="1" parent="1" source="yjBsbkN-T13tBxAq5jsB-18" target="yjBsbkN-T13tBxAq5jsB-13">
          <mxGeometry relative="1" as="geometry" />
        </mxCell>
        <mxCell id="yjBsbkN-T13tBxAq5jsB-18" value="commit log" style="rounded=0;whiteSpace=wrap;html=1;" vertex="1" parent="1">
          <mxGeometry x="290" y="600" width="110" height="40" as="geometry" />
        </mxCell>
        <mxCell id="yjBsbkN-T13tBxAq5jsB-21" value="commitlog offset" style="text;html=1;strokeColor=none;fillColor=none;align=center;verticalAlign=middle;whiteSpace=wrap;rounded=0;" vertex="1" parent="1">
          <mxGeometry x="260" y="570" width="40" height="20" as="geometry" />
        </mxCell>
        <mxCell id="yjBsbkN-T13tBxAq5jsB-22" value="时间戳" style="text;html=1;strokeColor=none;fillColor=none;align=center;verticalAlign=middle;whiteSpace=wrap;rounded=0;" vertex="1" parent="1">
          <mxGeometry x="390" y="570" width="40" height="20" as="geometry" />
        </mxCell>
        <mxCell id="yjBsbkN-T13tBxAq5jsB-23" value="key=1,offset=1,hash(key)=1" style="rounded=0;whiteSpace=wrap;html=1;" vertex="1" parent="1">
          <mxGeometry x="205" y="780" width="170" height="40" as="geometry" />
        </mxCell>
        <mxCell id="yjBsbkN-T13tBxAq5jsB-24" value="key=11,offset=11,hash(key)=1" style="rounded=0;whiteSpace=wrap;html=1;" vertex="1" parent="1">
          <mxGeometry x="545" y="780" width="170" height="40" as="geometry" />
        </mxCell>
        <mxCell id="yjBsbkN-T13tBxAq5jsB-25" value="key=2,offset=2,hash(key)=2" style="rounded=0;whiteSpace=wrap;html=1;" vertex="1" parent="1">
          <mxGeometry x="375" y="780" width="170" height="40" as="geometry" />
        </mxCell>
        <mxCell id="yjBsbkN-T13tBxAq5jsB-26" value="&lt;span style=&quot;color: rgb(0 , 0 , 0) ; font-family: &amp;#34;helvetica&amp;#34; ; font-size: 12px ; font-style: normal ; font-weight: 400 ; letter-spacing: normal ; text-align: center ; text-indent: 0px ; text-transform: none ; word-spacing: 0px ; background-color: rgb(248 , 249 , 250) ; display: inline ; float: none&quot;&gt;key=12,offset=12,&lt;/span&gt;hash(key)=1" style="rounded=0;whiteSpace=wrap;html=1;" vertex="1" parent="1">
          <mxGeometry x="715" y="780" width="170" height="40" as="geometry" />
        </mxCell>
        <mxCell id="yjBsbkN-T13tBxAq5jsB-32" value="2" style="rounded=0;whiteSpace=wrap;html=1;" vertex="1" parent="1">
          <mxGeometry x="205" y="1040" width="100" height="40" as="geometry" />
        </mxCell>
        <mxCell id="yjBsbkN-T13tBxAq5jsB-35" value="3" style="rounded=0;whiteSpace=wrap;html=1;" vertex="1" parent="1">
          <mxGeometry x="305" y="1040" width="100" height="40" as="geometry" />
        </mxCell>
        <mxCell id="yjBsbkN-T13tBxAq5jsB-36" value="hashcode=1&lt;br&gt;offset=1&lt;br&gt;pre indexno=0" style="rounded=0;whiteSpace=wrap;html=1;" vertex="1" parent="1">
          <mxGeometry x="445" y="1040" width="100" height="40" as="geometry" />
        </mxCell>
        <mxCell id="yjBsbkN-T13tBxAq5jsB-37" value="hashcode=2&lt;br&gt;offset=2&lt;br&gt;pre indexno=1" style="rounded=0;whiteSpace=wrap;html=1;" vertex="1" parent="1">
          <mxGeometry x="545" y="1040" width="100" height="40" as="geometry" />
        </mxCell>
        <mxCell id="yjBsbkN-T13tBxAq5jsB-81" style="edgeStyle=orthogonalEdgeStyle;rounded=0;orthogonalLoop=1;jettySize=auto;html=1;exitX=0.5;exitY=1;exitDx=0;exitDy=0;entryX=0.5;entryY=1;entryDx=0;entryDy=0;" edge="1" parent="1" source="yjBsbkN-T13tBxAq5jsB-38" target="yjBsbkN-T13tBxAq5jsB-36">
          <mxGeometry relative="1" as="geometry" />
        </mxCell>
        <mxCell id="yjBsbkN-T13tBxAq5jsB-38" value="hashcode=1&lt;br&gt;offset=11&lt;br&gt;pre indexno=0" style="rounded=0;whiteSpace=wrap;html=1;" vertex="1" parent="1">
          <mxGeometry x="645" y="1040" width="100" height="40" as="geometry" />
        </mxCell>
        <mxCell id="yjBsbkN-T13tBxAq5jsB-83" style="edgeStyle=orthogonalEdgeStyle;rounded=0;orthogonalLoop=1;jettySize=auto;html=1;exitX=0.5;exitY=0;exitDx=0;exitDy=0;entryX=0.5;entryY=0;entryDx=0;entryDy=0;" edge="1" parent="1" source="yjBsbkN-T13tBxAq5jsB-39" target="yjBsbkN-T13tBxAq5jsB-37">
          <mxGeometry relative="1" as="geometry" />
        </mxCell>
        <mxCell id="yjBsbkN-T13tBxAq5jsB-39" value="hashcode=2&lt;br&gt;offset=12&lt;br&gt;pre indexno=2" style="rounded=0;whiteSpace=wrap;html=1;" vertex="1" parent="1">
          <mxGeometry x="745" y="1040" width="100" height="40" as="geometry" />
        </mxCell>
        <mxCell id="yjBsbkN-T13tBxAq5jsB-40" value="1" style="text;html=1;strokeColor=none;fillColor=none;align=center;verticalAlign=middle;whiteSpace=wrap;rounded=0;" vertex="1" parent="1">
          <mxGeometry x="475" y="1010" width="40" height="20" as="geometry" />
        </mxCell>
        <mxCell id="yjBsbkN-T13tBxAq5jsB-41" value="2" style="text;html=1;strokeColor=none;fillColor=none;align=center;verticalAlign=middle;whiteSpace=wrap;rounded=0;" vertex="1" parent="1">
          <mxGeometry x="575" y="1010" width="40" height="20" as="geometry" />
        </mxCell>
        <mxCell id="yjBsbkN-T13tBxAq5jsB-42" value="3" style="text;html=1;strokeColor=none;fillColor=none;align=center;verticalAlign=middle;whiteSpace=wrap;rounded=0;" vertex="1" parent="1">
          <mxGeometry x="675" y="1010" width="40" height="20" as="geometry" />
        </mxCell>
        <mxCell id="yjBsbkN-T13tBxAq5jsB-43" value="4" style="text;html=1;strokeColor=none;fillColor=none;align=center;verticalAlign=middle;whiteSpace=wrap;rounded=0;" vertex="1" parent="1">
          <mxGeometry x="765" y="1010" width="40" height="20" as="geometry" />
        </mxCell>
        <mxCell id="yjBsbkN-T13tBxAq5jsB-45" value="" style="rounded=0;whiteSpace=wrap;html=1;" vertex="1" parent="1">
          <mxGeometry x="245" y="910" width="100" height="30" as="geometry" />
        </mxCell>
        <mxCell id="yjBsbkN-T13tBxAq5jsB-52" value="beginTimestamp" style="text;html=1;strokeColor=none;fillColor=none;align=center;verticalAlign=middle;whiteSpace=wrap;rounded=0;" vertex="1" parent="1">
          <mxGeometry x="275" y="880" width="40" height="20" as="geometry" />
        </mxCell>
        <mxCell id="yjBsbkN-T13tBxAq5jsB-54" value="" style="rounded=0;whiteSpace=wrap;html=1;" vertex="1" parent="1">
          <mxGeometry x="345" y="910" width="100" height="30" as="geometry" />
        </mxCell>
        <mxCell id="yjBsbkN-T13tBxAq5jsB-55" value="1" style="rounded=0;whiteSpace=wrap;html=1;" vertex="1" parent="1">
          <mxGeometry x="445" y="910" width="100" height="30" as="geometry" />
        </mxCell>
        <mxCell id="yjBsbkN-T13tBxAq5jsB-62" value="12" style="rounded=0;whiteSpace=wrap;html=1;" vertex="1" parent="1">
          <mxGeometry x="545" y="910" width="100" height="30" as="geometry" />
        </mxCell>
        <mxCell id="yjBsbkN-T13tBxAq5jsB-63" value="2" style="rounded=0;whiteSpace=wrap;html=1;" vertex="1" parent="1">
          <mxGeometry x="645" y="910" width="100" height="30" as="geometry" />
        </mxCell>
        <mxCell id="yjBsbkN-T13tBxAq5jsB-64" value="4" style="rounded=0;whiteSpace=wrap;html=1;" vertex="1" parent="1">
          <mxGeometry x="745" y="910" width="100" height="30" as="geometry" />
        </mxCell>
        <mxCell id="yjBsbkN-T13tBxAq5jsB-65" value="endTimestamp" style="text;html=1;strokeColor=none;fillColor=none;align=center;verticalAlign=middle;whiteSpace=wrap;rounded=0;" vertex="1" parent="1">
          <mxGeometry x="375" y="880" width="40" height="20" as="geometry" />
        </mxCell>
        <mxCell id="yjBsbkN-T13tBxAq5jsB-70" value="beginOffset" style="text;html=1;strokeColor=none;fillColor=none;align=center;verticalAlign=middle;whiteSpace=wrap;rounded=0;" vertex="1" parent="1">
          <mxGeometry x="460" y="880" width="55" height="20" as="geometry" />
        </mxCell>
        <mxCell id="yjBsbkN-T13tBxAq5jsB-72" value="endOffset" style="text;html=1;strokeColor=none;fillColor=none;align=center;verticalAlign=middle;whiteSpace=wrap;rounded=0;" vertex="1" parent="1">
          <mxGeometry x="567.5" y="880" width="55" height="20" as="geometry" />
        </mxCell>
        <mxCell id="yjBsbkN-T13tBxAq5jsB-73" value="hashSlotCount" style="text;html=1;strokeColor=none;fillColor=none;align=center;verticalAlign=middle;whiteSpace=wrap;rounded=0;" vertex="1" parent="1">
          <mxGeometry x="667.5" y="880" width="55" height="20" as="geometry" />
        </mxCell>
        <mxCell id="yjBsbkN-T13tBxAq5jsB-74" value="indexCount" style="text;html=1;strokeColor=none;fillColor=none;align=center;verticalAlign=middle;whiteSpace=wrap;rounded=0;" vertex="1" parent="1">
          <mxGeometry x="772.5" y="880" width="55" height="20" as="geometry" />
        </mxCell>
        <mxCell id="yjBsbkN-T13tBxAq5jsB-75" value="commit log" style="text;html=1;strokeColor=none;fillColor=none;align=center;verticalAlign=middle;whiteSpace=wrap;rounded=0;" vertex="1" parent="1">
          <mxGeometry x="475" y="750" width="105" height="20" as="geometry" />
        </mxCell>
        <mxCell id="yjBsbkN-T13tBxAq5jsB-76" value="index header" style="text;html=1;strokeColor=none;fillColor=none;align=center;verticalAlign=middle;whiteSpace=wrap;rounded=0;" vertex="1" parent="1">
          <mxGeometry x="490" y="950" width="105" height="20" as="geometry" />
        </mxCell>
        <mxCell id="yjBsbkN-T13tBxAq5jsB-77" value="hash 槽" style="text;html=1;strokeColor=none;fillColor=none;align=center;verticalAlign=middle;whiteSpace=wrap;rounded=0;" vertex="1" parent="1">
          <mxGeometry x="250" y="1110" width="105" height="20" as="geometry" />
        </mxCell>
        <mxCell id="yjBsbkN-T13tBxAq5jsB-78" value="index 条目" style="text;html=1;strokeColor=none;fillColor=none;align=center;verticalAlign=middle;whiteSpace=wrap;rounded=0;" vertex="1" parent="1">
          <mxGeometry x="590" y="1110" width="105" height="20" as="geometry" />
        </mxCell>
      </root>
    </mxGraphModel>
  </diagram>
</mxfile>
